<svg id="svg" version="1.1" xmlns="http://www.w3.org/2000/svg" xmlns:xlink="http://www.w3.org/1999/xlink" width="400" height="240" viewBox="0, 0, 400,240"><g id="svgg"><path id="path0" d="M57.671 105.690 C 57.203 106.159,57.259 146.057,57.729 146.447 C 58.195 146.833,82.012 146.709,82.674 146.317 C 82.917 146.173,83.350 145.633,83.636 145.117 C 83.960 144.531,84.524 143.991,85.135 143.682 C 89.097 141.678,90.516 139.686,90.516 136.130 C 90.516 133.460,90.324 132.861,89.246 132.173 C 88.832 131.909,88.239 131.315,87.928 130.852 C 87.284 129.894,86.585 129.471,84.910 129.030 C 82.568 128.412,81.594 126.777,82.379 124.779 C 83.166 122.775,84.247 121.053,85.149 120.365 C 86.830 119.083,87.402 116.189,86.822 111.892 C 86.520 109.648,86.490 109.613,84.319 108.979 C 83.287 108.678,82.113 107.598,82.113 106.950 C 82.113 106.381,81.116 105.949,79.162 105.669 C 76.480 105.286,58.057 105.304,57.671 105.690 M107.563 105.619 L 105.762 105.762 105.762 120.602 C 105.762 135.340,105.766 135.445,106.262 135.848 C 107.539 136.888,109.244 140.070,109.244 141.415 C 109.244 142.227,109.830 142.751,110.967 142.954 C 112.188 143.173,112.784 143.735,113.281 145.138 L 113.707 146.339 115.497 146.526 C 122.534 147.263,133.863 146.648,134.134 145.515 C 134.532 143.849,135.941 142.638,137.501 142.622 C 138.184 142.615,138.361 142.297,138.570 140.697 C 138.665 139.970,138.964 138.079,139.234 136.495 C 139.690 133.822,139.726 132.612,139.731 119.776 L 139.736 105.939 138.669 105.671 C 137.239 105.311,134.149 105.323,133.782 105.690 C 133.564 105.908,133.493 109.398,133.492 119.916 C 133.489 136.470,133.304 138.160,131.304 139.843 C 129.467 141.389,124.910 142.028,119.921 141.440 C 114.290 140.777,114.290 140.777,114.118 119.894 L 114.003 105.934 112.404 105.775 C 111.524 105.688,110.480 105.584,110.084 105.546 C 109.688 105.507,108.553 105.540,107.563 105.619 M157.683 105.736 C 157.341 105.996,157.263 106.434,157.263 108.089 C 157.263 110.724,157.110 110.651,162.797 110.737 C 170.013 110.846,169.360 108.982,169.463 129.769 C 169.517 140.680,169.627 146.193,169.795 146.396 C 170.121 146.788,173.627 146.803,174.696 146.416 L 175.477 146.134 175.555 130.510 C 175.643 113.079,175.566 113.866,177.332 112.410 C 179.117 110.939,179.515 110.847,184.966 110.653 C 190.800 110.446,190.435 110.633,190.346 107.901 L 190.276 105.762 188.115 105.608 C 183.611 105.285,158.135 105.393,157.683 105.736 M204.682 105.727 L 203.481 106.006 203.481 108.028 L 203.481 110.049 204.202 110.266 C 204.598 110.386,206.651 110.571,208.764 110.679 C 212.966 110.893,214.406 111.244,215.580 112.341 C 216.866 113.542,216.873 113.639,216.979 130.492 C 217.066 144.565,217.114 146.128,217.467 146.399 C 218.008 146.813,221.940 146.807,222.286 146.391 C 222.459 146.182,222.565 140.846,222.615 129.764 C 222.709 109.050,222.031 110.890,229.652 110.676 C 232.161 110.606,234.403 110.459,234.634 110.350 C 235.338 110.019,235.245 106.284,234.520 105.776 C 233.835 105.296,206.730 105.251,204.682 105.727 M260.433 105.756 C 259.094 106.048,257.863 106.855,257.863 107.440 C 257.863 107.995,256.507 108.984,255.342 109.278 C 253.748 109.679,253.631 109.788,253.295 111.190 C 253.000 112.422,252.057 113.806,251.514 113.806 C 250.814 113.806,250.022 114.925,249.725 116.335 C 249.287 118.409,249.090 130.054,249.433 133.613 C 249.862 138.064,249.822 137.945,251.040 138.410 C 252.289 138.887,252.984 139.769,253.206 141.158 C 253.387 142.286,253.874 142.714,255.255 142.956 C 256.343 143.146,257.307 144.084,257.623 145.259 C 257.835 146.044,257.977 146.176,258.764 146.315 C 260.742 146.665,269.432 146.886,273.109 146.680 C 278.198 146.395,278.206 146.393,278.512 145.258 C 278.788 144.232,279.876 143.172,280.871 142.961 C 282.265 142.664,282.520 142.440,282.816 141.257 C 283.167 139.853,284.064 138.851,285.256 138.529 C 286.354 138.234,286.323 138.378,286.777 131.453 C 287.081 126.820,287.080 125.551,286.768 121.128 C 286.266 114.017,286.277 114.069,285.151 113.683 C 283.858 113.239,283.176 112.514,282.822 111.207 C 282.425 109.737,282.258 109.550,281.179 109.368 C 279.768 109.130,278.774 108.394,278.245 107.198 C 277.743 106.065,277.768 106.078,275.286 105.649 C 273.251 105.296,262.167 105.376,260.433 105.756 M305.582 105.726 C 305.188 106.035,305.162 107.293,305.162 126.050 C 305.162 149.160,304.814 146.679,308.055 146.691 C 310.925 146.702,310.684 147.690,310.686 135.906 C 310.687 125.287,310.765 124.338,311.704 123.481 C 313.691 121.670,316.695 122.636,317.478 125.338 C 317.743 126.253,317.891 126.416,318.586 126.558 C 319.799 126.806,320.611 127.536,320.984 128.713 C 321.680 130.911,321.804 131.121,322.663 131.560 C 323.934 132.208,325.810 135.131,325.810 136.461 C 325.810 136.652,326.190 137.115,326.654 137.491 C 327.119 137.868,327.830 138.447,328.234 138.779 C 328.779 139.227,329.074 139.780,329.371 140.914 C 329.762 142.408,329.797 142.452,330.812 142.751 C 332.162 143.150,332.713 143.672,333.057 144.877 C 333.530 146.538,333.790 146.699,336.004 146.699 C 338.807 146.699,338.535 148.911,338.535 126.050 C 338.535 103.190,338.807 105.402,336.004 105.402 C 333.019 105.402,333.253 104.453,333.253 116.521 C 333.253 128.226,333.240 128.321,331.499 129.209 C 329.555 130.201,327.200 129.311,326.313 127.249 C 326.029 126.590,325.681 126.050,325.540 126.050 C 324.255 126.050,322.935 124.527,322.595 122.653 C 322.419 121.681,322.147 121.386,321.227 121.167 C 320.247 120.933,319.386 120.119,319.090 119.144 C 318.538 117.331,318.088 116.554,317.287 116.031 C 316.217 115.332,314.866 113.196,314.374 111.428 C 314.011 110.124,313.916 110.001,313.072 109.748 C 311.928 109.405,310.969 108.288,310.774 107.069 C 310.692 106.553,310.503 106.034,310.354 105.915 C 309.850 105.512,306.048 105.361,305.582 105.726 M76.431 110.687 C 80.297 111.083,81.093 111.916,81.325 115.807 C 81.543 119.471,80.732 121.537,78.935 121.896 C 78.560 121.971,78.137 122.261,77.993 122.541 C 77.103 124.276,75.591 124.964,72.149 125.200 C 66.598 125.581,63.625 122.428,63.625 116.158 C 63.625 110.962,66.621 109.682,76.431 110.687 M273.009 110.928 C 275.325 111.367,275.868 111.803,277.071 114.186 C 277.665 115.363,278.560 116.743,279.060 117.253 C 282.414 120.672,282.271 133.506,278.854 135.728 C 278.077 136.233,277.327 137.547,276.944 139.076 C 276.461 141.003,274.700 141.509,268.427 141.520 C 261.047 141.533,260.132 141.172,258.800 137.715 C 258.322 136.475,257.707 135.399,257.096 134.736 C 253.942 131.311,253.810 121.145,256.883 118.310 C 257.638 117.614,258.096 116.943,258.315 116.209 C 258.788 114.625,260.231 112.248,260.991 111.799 C 262.741 110.765,269.549 110.272,273.009 110.928 M78.349 126.998 C 80.147 127.229,80.912 127.713,80.912 128.616 C 80.912 129.889,81.884 132.083,82.858 133.009 L 83.826 133.930 83.355 134.852 C 83.096 135.359,82.668 135.970,82.404 136.208 C 82.095 136.488,81.867 137.102,81.763 137.937 C 81.458 140.380,80.507 141.220,77.538 141.667 C 76.397 141.838,75.415 142.153,74.825 142.536 C 72.906 143.782,69.695 143.849,68.208 142.674 C 67.734 142.300,66.837 141.699,66.215 141.340 C 64.157 140.151,63.759 139.360,63.662 136.274 C 63.485 130.578,64.555 128.210,67.827 127.061 C 68.709 126.752,76.095 126.707,78.349 126.998 " stroke="none" fill="#f4fafc" fill-rule="evenodd"></path><path id="path1" d="M15.509 18.284 C 15.627 18.476,15.488 18.510,15.042 18.398 C 14.692 18.310,14.399 18.267,14.392 18.303 C 14.384 18.338,14.323 19.124,14.257 20.048 C 14.110 22.116,14.186 22.045,12.030 22.112 C 8.559 22.221,6.882 22.891,6.616 24.275 C 6.543 24.657,6.420 25.294,6.343 25.690 C 6.226 26.297,6.092 26.411,5.495 26.411 C 3.218 26.411,2.070 28.209,2.123 31.693 C 2.154 33.749,1.986 34.094,0.950 34.094 L 0.000 34.094 0.000 124.130 L 0.000 214.166 0.956 214.166 C 1.995 214.166,2.376 214.758,2.076 215.907 C 1.522 218.024,3.044 221.276,4.707 221.531 C 5.944 221.720,6.483 222.223,6.483 223.188 C 6.483 224.399,7.451 225.387,8.834 225.588 C 9.455 225.678,10.180 225.804,10.444 225.869 C 10.708 225.933,11.591 226.000,12.405 226.018 C 14.218 226.058,14.135 225.971,14.239 227.925 C 14.286 228.808,14.403 229.609,14.498 229.704 C 14.593 229.799,14.596 229.681,14.504 229.441 C 14.354 229.050,14.389 229.037,14.842 229.320 C 15.202 229.545,15.264 229.688,15.056 229.819 C 14.897 229.920,98.121 230.003,200.000 230.003 C 301.879 230.003,385.103 229.920,384.944 229.819 C 384.736 229.688,384.798 229.545,385.158 229.320 C 385.602 229.043,385.645 229.053,385.512 229.400 C 385.428 229.618,385.443 229.746,385.544 229.683 C 385.646 229.620,385.750 228.842,385.777 227.955 C 385.835 225.993,385.774 226.058,387.595 226.016 C 388.409 225.998,389.400 225.912,389.796 225.825 C 392.934 225.139,393.236 224.843,393.596 222.091 C 393.627 221.856,394.068 221.665,394.870 221.537 C 396.877 221.218,397.969 219.332,397.887 216.327 C 397.832 214.298,398.012 213.926,399.050 213.926 L 400.000 213.926 400.000 124.010 L 400.000 34.094 399.044 34.094 C 397.960 34.094,397.813 33.825,397.866 31.933 C 397.968 28.261,396.841 26.411,394.505 26.411 C 393.908 26.411,393.774 26.297,393.657 25.690 C 393.580 25.294,393.457 24.657,393.384 24.275 C 393.118 22.891,391.441 22.221,387.970 22.112 C 385.814 22.045,385.890 22.116,385.743 20.048 C 385.677 19.124,385.616 18.338,385.608 18.303 C 385.601 18.267,385.308 18.310,384.958 18.398 C 384.512 18.510,384.373 18.476,384.491 18.284 C 384.618 18.079,338.105 18.010,200.000 18.010 C 61.895 18.010,15.382 18.079,15.509 18.284 M10.188 22.644 C 10.122 22.817,9.698 23.092,9.247 23.255 C 8.400 23.562,7.203 24.770,7.203 25.319 C 7.203 25.491,7.044 25.764,6.849 25.925 C 6.546 26.177,6.549 26.061,6.872 25.114 C 7.282 23.911,8.129 23.092,9.182 22.881 C 9.552 22.808,9.912 22.653,9.983 22.538 C 10.182 22.217,10.324 22.290,10.188 22.644 M390.897 22.891 C 391.919 23.134,392.729 23.941,393.128 25.114 C 393.451 26.061,393.454 26.177,393.151 25.925 C 392.956 25.764,392.797 25.491,392.797 25.319 C 392.797 24.770,391.600 23.562,390.753 23.255 C 390.302 23.092,389.872 22.802,389.799 22.610 C 389.701 22.355,389.747 22.326,389.970 22.502 C 390.139 22.634,390.556 22.809,390.897 22.891 M5.994 26.831 C 5.989 26.930,5.530 27.227,4.973 27.491 C 4.236 27.841,3.832 28.244,3.481 28.980 C 2.829 30.349,2.369 30.508,2.814 29.211 C 3.239 27.970,3.953 27.185,4.909 26.907 C 5.876 26.626,6.004 26.617,5.994 26.831 M395.681 27.142 C 396.310 27.462,396.830 28.177,397.185 29.211 C 397.631 30.508,397.171 30.349,396.519 28.980 C 396.168 28.244,395.764 27.841,395.027 27.491 C 394.470 27.227,394.011 26.928,394.006 26.826 C 393.997 26.630,395.074 26.833,395.681 27.142 M271.600 101.547 C 272.298 101.804,274.307 102.292,276.064 102.630 C 280.007 103.390,280.638 103.649,281.661 104.922 C 282.108 105.478,282.851 106.128,283.313 106.366 C 284.313 106.881,285.271 107.868,285.814 108.945 C 286.031 109.375,286.621 109.987,287.125 110.305 C 288.237 111.007,288.640 111.817,289.313 114.693 C 289.644 116.108,290.070 117.232,290.496 117.821 C 293.175 121.520,293.123 132.431,290.416 134.678 C 290.020 135.006,289.229 137.457,288.952 139.208 C 288.695 140.835,286.508 143.505,282.621 146.937 C 280.688 148.644,280.494 148.741,277.791 149.347 C 276.523 149.632,275.030 150.148,274.430 150.510 C 271.260 152.419,265.081 152.466,262.102 150.603 C 261.595 150.285,260.298 149.808,259.221 149.543 C 258.144 149.278,256.850 148.955,256.346 148.826 C 255.738 148.671,254.967 148.133,254.054 147.225 C 253.297 146.473,252.211 145.491,251.641 145.041 C 251.071 144.592,250.461 143.881,250.286 143.461 C 250.111 143.041,249.490 142.306,248.907 141.828 C 247.688 140.829,247.538 140.510,246.691 137.110 C 246.348 135.732,245.863 134.318,245.614 133.967 C 243.461 130.944,243.380 122.352,245.475 119.265 C 245.856 118.704,246.246 117.490,246.587 115.803 C 247.316 112.196,247.642 111.481,248.924 110.668 C 249.672 110.193,250.157 109.642,250.533 108.836 C 251.178 107.457,251.627 107.029,253.082 106.405 C 253.862 106.071,254.272 105.717,254.490 105.190 C 254.980 104.008,256.112 103.505,260.207 102.647 C 262.285 102.212,264.364 101.686,264.826 101.478 C 266.095 100.906,269.965 100.946,271.600 101.547 M81.360 103.006 C 84.822 103.371,88.196 105.594,89.558 108.408 C 89.828 108.965,90.273 109.624,90.547 109.872 C 92.955 112.051,93.071 118.135,90.737 119.860 C 89.695 120.631,89.161 121.619,88.822 123.409 C 88.660 124.268,88.427 125.166,88.304 125.406 C 88.003 125.995,88.266 126.262,90.076 127.201 C 92.762 128.594,93.272 130.037,93.275 136.255 C 93.278 142.420,92.723 144.015,90.138 145.267 C 89.398 145.625,88.959 146.032,88.735 146.568 C 87.691 149.069,82.559 149.820,66.521 149.820 C 56.649 149.820,56.268 149.774,55.245 148.474 C 54.273 147.238,54.252 146.708,54.318 125.607 C 54.390 102.438,54.201 104.439,56.427 103.301 C 57.610 102.697,76.324 102.476,81.360 103.006 M114.550 103.034 C 117.182 103.913,117.167 103.815,117.167 120.240 C 117.167 135.764,117.051 134.754,119.064 136.793 C 120.995 138.747,121.063 138.776,123.832 138.776 C 126.552 138.776,126.614 138.740,127.686 136.615 C 128.147 135.699,128.616 135.150,129.216 134.826 C 130.392 134.189,130.372 134.451,130.372 119.210 C 130.372 101.828,130.014 102.597,138.010 102.805 C 142.525 102.922,143.194 103.122,144.237 104.670 L 144.778 105.473 144.767 120.384 C 144.754 138.878,144.655 139.781,142.511 140.929 C 142.147 141.124,141.757 141.736,141.436 142.616 C 140.794 144.377,140.132 145.212,138.960 145.737 C 138.371 146.000,137.876 146.453,137.620 146.962 C 137.037 148.124,135.977 148.726,133.443 149.333 C 132.216 149.627,130.672 150.171,130.012 150.542 C 126.457 152.537,120.158 152.493,117.212 150.452 C 116.639 150.054,115.468 149.637,114.064 149.331 C 110.940 148.649,108.123 146.675,106.540 144.058 C 106.260 143.595,105.530 142.661,104.917 141.982 C 102.840 139.679,102.902 140.305,102.891 121.609 C 102.880 103.303,102.793 104.223,104.626 103.255 C 105.686 102.696,113.046 102.531,114.550 103.034 M191.333 103.229 C 192.725 103.939,193.038 104.834,193.032 108.080 C 193.022 113.241,192.557 113.638,186.326 113.806 L 181.873 113.926 181.393 115.246 C 180.938 116.499,180.907 117.339,180.793 131.693 C 180.649 149.713,180.845 148.827,176.847 149.559 C 172.024 150.442,168.071 149.747,167.050 147.836 L 166.507 146.819 166.387 131.429 C 166.254 114.379,166.402 115.723,164.526 114.623 C 163.513 114.030,163.148 113.967,159.919 113.829 C 155.887 113.657,155.222 113.400,153.450 111.330 L 152.461 110.175 152.461 108.054 C 152.461 105.717,152.618 105.418,154.637 103.897 C 156.032 102.846,156.651 102.810,173.899 102.785 C 189.826 102.762,190.448 102.778,191.333 103.229 M235.983 103.013 C 239.480 103.580,240.334 104.593,240.335 108.177 C 240.337 112.384,238.412 113.801,232.688 113.809 C 229.554 113.813,229.305 113.876,228.645 114.838 C 228.355 115.261,227.788 116.082,227.384 116.663 L 226.651 117.719 226.651 131.716 L 226.651 145.713 226.044 146.855 C 224.700 149.381,223.792 149.811,219.808 149.806 C 215.262 149.801,213.091 149.061,212.018 147.150 C 211.536 146.293,211.525 145.951,211.525 132.140 C 211.526 118.350,211.514 117.964,211.005 116.206 C 210.278 113.694,210.608 113.857,206.050 113.766 C 199.946 113.644,199.040 112.913,199.040 108.114 C 199.040 104.887,199.445 103.999,201.321 103.118 C 202.222 102.695,233.439 102.600,235.983 103.013 M312.005 103.361 C 312.683 103.701,313.141 104.178,313.565 104.990 C 313.914 105.657,314.380 106.193,314.677 106.269 C 315.525 106.486,316.654 107.860,317.126 109.249 C 317.500 110.351,317.738 110.654,318.629 111.167 C 319.520 111.680,319.848 112.098,320.699 113.806 C 321.361 115.136,322.037 116.107,322.657 116.622 C 323.805 117.576,325.136 119.546,325.611 120.993 C 326.059 122.360,326.352 122.435,327.351 121.437 C 328.741 120.047,328.932 118.902,328.932 111.959 L 328.932 105.878 329.645 105.100 C 331.036 103.582,331.207 103.461,332.500 103.086 C 334.084 102.625,339.250 102.717,340.216 103.222 C 340.546 103.395,341.384 104.088,342.077 104.761 L 343.337 105.986 343.337 126.042 L 343.337 146.098 342.377 147.179 C 341.849 147.773,341.417 148.331,341.417 148.418 C 341.414 149.747,334.683 150.354,332.240 149.244 C 330.029 148.241,327.397 145.370,326.614 143.109 C 326.219 141.969,326.018 141.727,325.053 141.230 C 323.953 140.664,323.795 140.449,322.709 138.055 C 322.368 137.303,321.945 136.829,321.314 136.495 C 320.552 136.090,320.218 135.627,319.208 133.569 L 318.007 131.123 316.507 131.108 C 315.340 131.096,314.899 130.986,314.526 130.612 L 314.046 130.132 314.046 138.164 C 314.046 146.458,314.018 146.731,313.017 148.205 C 311.044 151.109,302.381 150.197,300.353 146.871 C 299.668 145.747,299.607 106.385,300.289 105.396 C 301.931 103.013,308.891 101.805,312.005 103.361 M69.448 113.487 C 68.647 114.046,68.639 117.965,69.437 119.181 L 69.966 119.989 72.015 119.861 C 73.586 119.763,74.402 119.573,75.508 119.050 C 76.301 118.675,77.133 118.368,77.357 118.368 C 78.071 118.367,78.057 117.949,77.307 116.837 C 76.904 116.241,76.433 115.342,76.259 114.839 C 75.721 113.280,71.068 112.357,69.448 113.487 M265.509 113.866 C 265.306 114.031,264.898 114.520,264.602 114.953 C 264.306 115.385,263.535 116.008,262.888 116.335 C 261.096 117.243,261.146 117.096,260.055 124.675 C 259.506 128.486,261.097 135.412,262.682 136.107 C 263.099 136.289,263.656 136.806,263.921 137.256 C 264.804 138.752,268.611 139.547,270.703 138.673 C 272.618 137.873,274.946 135.045,275.269 133.125 C 275.358 132.601,275.582 131.687,275.767 131.092 C 276.713 128.055,276.872 126.212,276.383 123.964 C 275.070 117.930,274.757 117.076,273.647 116.494 C 273.219 116.270,272.304 115.519,271.614 114.826 L 270.359 113.565 268.118 113.565 C 266.683 113.565,265.746 113.673,265.509 113.866 M69.408 131.924 C 68.727 134.130,68.691 138.025,69.347 138.618 C 70.064 139.267,77.635 139.028,78.329 138.334 C 78.432 138.230,78.637 137.214,78.784 136.076 C 79.135 133.355,78.758 132.615,76.691 131.979 C 75.939 131.747,75.027 131.347,74.665 131.089 C 74.196 130.755,73.414 130.574,71.957 130.462 L 69.908 130.304 69.408 131.924 M3.121 218.271 C 3.121 219.083,3.967 220.186,4.957 220.665 C 6.289 221.310,6.136 221.576,4.739 221.043 C 3.685 220.640,3.085 219.910,2.789 218.667 C 2.696 218.276,2.732 218.007,2.877 218.007 C 3.011 218.007,3.121 218.126,3.121 218.271 M397.211 218.667 C 396.929 219.849,396.321 220.627,395.386 221.001 C 393.760 221.652,393.366 221.237,394.898 220.488 C 395.474 220.207,396.000 219.680,396.357 219.028 C 396.989 217.871,397.446 217.678,397.211 218.667 M7.287 222.880 C 7.678 223.815,8.968 224.970,9.622 224.970 C 9.876 224.970,10.084 225.080,10.084 225.215 C 10.084 225.522,8.991 225.276,8.110 224.770 C 7.539 224.442,6.723 223.003,6.723 222.324 C 6.723 221.865,6.961 222.100,7.287 222.880 M393.277 222.324 C 393.277 223.600,392.052 224.951,390.576 225.302 C 389.845 225.476,389.639 225.052,390.336 224.807 C 391.170 224.513,392.253 223.544,392.551 222.824 C 392.841 222.124,393.277 221.823,393.277 222.324 " stroke="none" fill="#0494f4" fill-rule="evenodd"></path><path id="path2" d="M264.826 101.478 C 264.364 101.686,262.285 102.212,260.207 102.647 C 256.112 103.505,254.980 104.008,254.490 105.190 C 254.272 105.717,253.862 106.071,253.082 106.405 C 251.627 107.029,251.178 107.457,250.533 108.836 C 250.157 109.642,249.672 110.193,248.924 110.668 C 247.642 111.481,247.316 112.196,246.587 115.803 C 246.246 117.490,245.856 118.704,245.475 119.265 C 243.380 122.352,243.461 130.944,245.614 133.967 C 245.863 134.318,246.348 135.732,246.691 137.110 C 247.538 140.510,247.688 140.829,248.907 141.828 C 249.490 142.306,250.111 143.041,250.286 143.461 C 250.461 143.881,251.071 144.592,251.641 145.041 C 252.211 145.491,253.297 146.473,254.054 147.225 C 254.967 148.133,255.738 148.671,256.346 148.826 C 256.850 148.955,258.144 149.278,259.221 149.543 C 260.298 149.808,261.595 150.285,262.102 150.603 C 265.081 152.466,271.260 152.419,274.430 150.510 C 275.030 150.148,276.523 149.632,277.791 149.347 C 280.494 148.741,280.688 148.644,282.621 146.937 C 286.508 143.505,288.695 140.835,288.952 139.208 C 289.229 137.457,290.020 135.006,290.416 134.678 C 293.123 132.431,293.175 121.520,290.496 117.821 C 290.070 117.232,289.644 116.108,289.313 114.693 C 288.640 111.817,288.237 111.007,287.125 110.305 C 286.621 109.987,286.031 109.375,285.814 108.945 C 285.271 107.868,284.313 106.881,283.313 106.366 C 282.851 106.128,282.108 105.478,281.661 104.922 C 280.638 103.649,280.007 103.390,276.064 102.630 C 274.307 102.292,272.298 101.804,271.600 101.547 C 269.965 100.946,266.095 100.906,264.826 101.478 M56.427 103.301 C 54.201 104.439,54.390 102.438,54.318 125.607 C 54.252 146.708,54.273 147.238,55.245 148.474 C 56.268 149.774,56.649 149.820,66.521 149.820 C 82.559 149.820,87.691 149.069,88.735 146.568 C 88.959 146.032,89.398 145.625,90.138 145.267 C 92.723 144.015,93.278 142.420,93.275 136.255 C 93.272 130.037,92.762 128.594,90.076 127.201 C 88.266 126.262,88.003 125.995,88.304 125.406 C 88.427 125.166,88.660 124.268,88.822 123.409 C 89.161 121.619,89.695 120.631,90.737 119.860 C 93.071 118.135,92.955 112.051,90.547 109.872 C 90.273 109.624,89.828 108.965,89.558 108.408 C 88.943 107.137,85.949 104.278,84.615 103.688 C 82.102 102.577,58.480 102.253,56.427 103.301 M104.626 103.255 C 102.793 104.223,102.880 103.303,102.891 121.609 C 102.902 140.305,102.840 139.679,104.917 141.982 C 105.530 142.661,106.260 143.595,106.540 144.058 C 108.123 146.675,110.940 148.649,114.064 149.331 C 115.468 149.637,116.639 150.054,117.212 150.452 C 120.158 152.493,126.457 152.537,130.012 150.542 C 130.672 150.171,132.216 149.627,133.443 149.333 C 135.977 148.726,137.037 148.124,137.620 146.962 C 137.876 146.453,138.371 146.000,138.960 145.737 C 140.132 145.212,140.794 144.377,141.436 142.616 C 141.757 141.736,142.147 141.124,142.511 140.929 C 144.655 139.781,144.754 138.878,144.767 120.384 L 144.778 105.473 144.237 104.670 C 143.194 103.122,142.525 102.922,138.010 102.805 C 130.014 102.597,130.372 101.828,130.372 119.210 C 130.372 134.451,130.392 134.189,129.216 134.826 C 128.616 135.150,128.147 135.699,127.686 136.615 C 126.614 138.740,126.552 138.776,123.832 138.776 C 121.063 138.776,120.995 138.747,119.064 136.793 C 117.051 134.754,117.167 135.764,117.167 120.240 C 117.167 103.815,117.182 103.913,114.550 103.034 C 113.046 102.531,105.686 102.696,104.626 103.255 M156.438 103.031 C 155.443 103.264,154.224 104.075,153.121 105.237 C 152.503 105.889,152.461 106.069,152.461 108.054 L 152.461 110.175 153.450 111.330 C 155.222 113.400,155.887 113.657,159.919 113.829 C 163.148 113.967,163.513 114.030,164.526 114.623 C 166.402 115.723,166.254 114.379,166.387 131.429 L 166.507 146.819 167.050 147.836 C 168.649 150.829,178.584 150.634,180.258 147.576 C 180.634 146.889,180.683 145.425,180.793 131.693 C 180.907 117.339,180.938 116.499,181.393 115.246 L 181.873 113.926 186.326 113.806 C 192.557 113.638,193.022 113.241,193.032 108.080 C 193.038 104.834,192.725 103.939,191.333 103.229 C 190.320 102.712,158.568 102.532,156.438 103.031 M201.321 103.118 C 199.445 103.999,199.040 104.887,199.040 108.114 C 199.040 112.913,199.946 113.644,206.050 113.766 C 210.608 113.857,210.278 113.694,211.005 116.206 C 211.514 117.964,211.526 118.350,211.525 132.140 C 211.525 145.951,211.536 146.293,212.018 147.150 C 213.091 149.061,215.262 149.801,219.808 149.806 C 223.792 149.811,224.700 149.381,226.044 146.855 L 226.651 145.713 226.651 131.716 L 226.651 117.719 227.384 116.663 C 227.788 116.082,228.355 115.261,228.645 114.838 C 229.305 113.876,229.554 113.813,232.688 113.809 C 238.412 113.801,240.337 112.384,240.335 108.177 C 240.334 104.593,239.480 103.580,235.983 103.013 C 233.439 102.600,202.222 102.695,201.321 103.118 M304.082 103.089 C 302.257 103.554,301.054 104.286,300.289 105.396 C 299.607 106.385,299.668 145.747,300.353 146.871 C 302.381 150.197,311.044 151.109,313.017 148.205 C 314.018 146.731,314.046 146.458,314.046 138.164 L 314.046 130.132 314.526 130.612 C 314.899 130.986,315.340 131.096,316.507 131.108 L 318.007 131.123 319.208 133.569 C 320.218 135.627,320.552 136.090,321.314 136.495 C 321.945 136.829,322.368 137.303,322.709 138.055 C 323.795 140.449,323.953 140.664,325.053 141.230 C 326.018 141.727,326.219 141.969,326.614 143.109 C 327.397 145.370,330.029 148.241,332.240 149.244 C 334.683 150.354,341.414 149.747,341.417 148.418 C 341.417 148.331,341.849 147.773,342.377 147.179 L 343.337 146.098 343.337 126.042 L 343.337 105.986 342.077 104.761 C 341.384 104.088,340.546 103.395,340.216 103.222 C 339.250 102.717,334.084 102.625,332.500 103.086 C 331.207 103.461,331.036 103.582,329.645 105.100 L 328.932 105.878 328.932 111.959 C 328.932 118.902,328.741 120.047,327.351 121.437 C 326.352 122.435,326.059 122.360,325.611 120.993 C 325.136 119.546,323.805 117.576,322.657 116.622 C 322.037 116.107,321.361 115.136,320.699 113.806 C 319.848 112.098,319.520 111.680,318.629 111.167 C 317.738 110.654,317.500 110.351,317.126 109.249 C 316.654 107.860,315.525 106.486,314.677 106.269 C 314.380 106.193,313.914 105.657,313.565 104.990 C 312.513 102.977,308.040 102.080,304.082 103.089 M275.870 103.744 C 278.317 104.074,278.886 104.340,280.238 105.789 C 280.807 106.399,281.831 107.257,282.514 107.696 C 283.282 108.189,283.999 108.909,284.394 109.582 C 284.745 110.181,285.568 111.120,286.223 111.669 C 287.771 112.965,287.981 113.419,288.465 116.522 C 288.688 117.950,289.118 119.948,289.421 120.963 C 290.733 125.355,290.738 127.487,289.444 131.452 C 289.120 132.444,288.683 134.412,288.473 135.826 C 288.048 138.686,287.676 139.477,286.187 140.674 C 285.643 141.111,284.876 141.991,284.483 142.630 C 284.042 143.347,283.323 144.066,282.606 144.507 C 281.967 144.900,281.087 145.667,280.650 146.211 C 278.458 148.938,270.898 149.969,262.095 148.741 C 257.374 148.082,256.817 147.869,255.485 146.211 C 255.048 145.667,254.167 144.900,253.528 144.507 C 252.796 144.056,252.092 143.346,251.624 142.585 C 251.215 141.921,250.350 140.888,249.700 140.290 C 248.138 138.851,247.938 138.213,247.039 131.813 L 246.281 126.411 246.788 122.929 C 247.067 121.014,247.464 118.220,247.669 116.720 C 248.083 113.705,248.197 113.455,249.894 111.854 C 250.542 111.243,251.331 110.270,251.647 109.693 C 252.030 108.993,252.704 108.323,253.670 107.683 C 254.467 107.155,255.655 106.168,256.311 105.491 C 258.290 103.447,267.542 102.620,275.870 103.744 M82.859 104.492 C 83.468 104.850,84.149 105.422,84.373 105.764 C 84.596 106.105,85.362 106.758,86.074 107.213 C 87.616 108.200,88.385 109.152,89.045 110.896 C 89.313 111.606,89.815 112.613,90.159 113.133 L 90.785 114.078 90.149 116.043 C 89.799 117.123,89.259 118.547,88.948 119.208 C 88.638 119.868,88.057 121.139,87.658 122.032 C 87.259 122.925,86.550 124.156,86.083 124.767 C 84.962 126.236,84.865 126.082,87.872 127.620 C 91.511 129.482,92.437 131.211,92.437 136.147 C 92.437 140.603,91.729 142.579,89.616 144.021 C 88.857 144.540,87.717 145.457,87.083 146.059 C 84.681 148.341,82.725 148.597,67.587 148.610 C 56.857 148.619,57.015 148.642,55.941 146.881 C 55.475 146.117,55.464 145.632,55.463 125.959 L 55.462 105.819 56.532 104.749 L 57.602 103.680 69.677 103.761 L 81.753 103.842 82.859 104.492 M112.695 103.881 C 114.148 104.018,114.442 104.133,115.156 104.847 L 115.966 105.658 115.980 117.955 C 116.001 136.984,116.189 137.993,119.947 139.226 C 123.999 140.557,126.983 139.872,129.416 137.052 C 131.730 134.369,131.573 135.623,131.573 119.924 C 131.573 104.663,131.521 105.198,133.096 104.225 C 134.866 103.131,141.665 103.779,142.917 105.161 L 143.577 105.890 143.577 119.893 C 143.577 135.470,143.503 136.305,141.911 138.709 C 141.521 139.299,140.918 140.523,140.571 141.431 C 140.116 142.622,139.701 143.267,139.081 143.750 C 138.608 144.117,137.563 145.076,136.758 145.879 C 134.625 148.010,134.538 148.046,129.907 148.725 C 121.283 149.991,113.156 148.919,111.323 146.275 C 110.978 145.776,110.342 145.166,109.909 144.918 C 108.667 144.207,108.041 143.547,107.385 142.257 C 107.050 141.597,106.365 140.658,105.864 140.172 C 103.810 138.176,103.721 137.319,103.723 119.466 C 103.725 104.528,103.647 105.278,105.316 104.177 C 106.060 103.687,109.272 103.558,112.695 103.881 M191.145 104.654 L 192.077 105.586 192.077 108.135 L 192.077 110.684 191.116 111.645 L 190.156 112.605 186.063 112.605 C 178.936 112.605,179.352 111.399,179.352 132.059 L 179.352 146.211 178.691 146.936 C 177.784 147.933,175.038 148.619,171.959 148.619 L 169.685 148.619 168.636 147.571 L 167.587 146.522 167.572 131.904 C 167.551 110.898,168.078 112.760,162.118 112.653 C 156.164 112.546,155.102 111.853,155.102 108.075 C 155.102 103.552,154.261 103.745,174.038 103.732 L 190.213 103.721 191.145 104.654 M235.572 104.194 C 237.803 105.042,238.415 105.879,238.415 108.082 C 238.415 111.408,236.641 112.452,230.612 112.674 C 226.765 112.815,225.615 113.071,225.145 113.891 C 224.923 114.278,224.820 118.372,224.730 130.372 C 224.617 145.409,224.584 146.377,224.165 146.995 C 222.602 149.299,217.177 149.261,214.346 146.926 L 213.445 146.184 213.438 131.975 C 213.428 112.499,213.463 112.625,208.037 112.611 C 201.347 112.593,200.237 111.951,200.245 108.107 C 200.252 105.024,200.861 104.204,203.338 103.937 C 207.374 103.502,234.317 103.717,235.572 104.194 M310.839 104.183 C 311.254 104.437,311.794 104.947,312.039 105.318 C 312.284 105.690,313.200 106.698,314.074 107.558 C 314.949 108.419,315.972 109.703,316.348 110.412 C 316.725 111.120,317.500 112.082,318.071 112.550 C 318.862 113.198,319.385 113.979,320.270 115.831 C 321.177 117.730,321.670 118.458,322.524 119.158 C 323.181 119.696,323.856 120.556,324.214 121.311 C 324.867 122.686,325.742 123.619,326.952 124.229 C 327.382 124.446,327.989 125.026,328.301 125.517 C 329.393 127.235,329.803 127.449,330.558 126.694 L 331.206 126.046 331.281 116.024 C 331.334 109.025,331.441 105.833,331.636 105.442 C 332.776 103.156,338.394 103.024,340.245 105.241 C 340.658 105.735,340.681 106.818,340.688 126.092 L 340.696 146.422 340.067 147.169 C 337.848 149.807,333.010 149.146,331.020 145.932 C 330.800 145.577,330.151 144.964,329.579 144.570 C 328.879 144.089,328.280 143.370,327.751 142.378 C 327.214 141.370,326.603 140.642,325.822 140.081 C 325.035 139.516,324.430 138.793,323.879 137.759 C 323.439 136.933,322.632 135.770,322.086 135.175 C 320.901 133.883,320.260 132.829,319.679 131.212 C 319.160 129.768,318.550 129.040,317.338 128.419 C 316.776 128.130,316.120 127.471,315.622 126.691 C 314.395 124.773,314.151 124.635,313.372 125.415 L 312.725 126.061 312.605 136.211 C 312.496 145.469,312.447 146.419,312.052 147.022 C 310.607 149.223,305.810 149.297,303.370 147.155 L 302.521 146.409 302.521 126.038 L 302.521 105.667 303.312 105.063 C 305.183 103.637,309.176 103.170,310.839 104.183 M68.788 112.877 L 67.587 113.685 67.518 116.048 C 67.444 118.597,68.217 121.013,69.476 122.168 C 70.209 122.840,73.444 122.379,74.696 121.424 C 75.157 121.072,76.124 120.522,76.843 120.202 C 78.025 119.676,78.879 118.987,79.321 118.202 C 79.559 117.780,78.772 114.234,78.332 113.743 C 77.714 113.055,74.988 112.348,72.389 112.203 L 69.988 112.068 68.788 112.877 M264.946 112.892 C 262.357 114.255,260.492 116.474,259.542 119.318 C 259.258 120.171,258.821 121.154,258.573 121.503 C 256.991 123.725,256.943 128.105,258.472 130.731 C 258.779 131.260,259.365 132.610,259.772 133.731 C 261.698 139.031,265.862 141.055,271.580 139.471 C 274.537 138.652,274.206 139.008,276.344 134.339 C 276.887 133.153,277.537 131.963,277.790 131.694 C 279.507 129.866,279.644 123.002,277.999 121.129 C 277.399 120.445,277.071 119.854,275.671 116.929 C 273.919 113.269,268.269 111.142,264.946 112.892 M74.886 113.518 C 75.752 113.852,76.001 114.091,76.259 114.839 C 76.433 115.342,76.904 116.241,77.307 116.837 C 78.057 117.949,78.071 118.367,77.357 118.368 C 77.133 118.368,76.301 118.675,75.508 119.050 C 74.402 119.573,73.586 119.763,72.015 119.861 L 69.966 119.989 69.437 119.181 C 68.639 117.965,68.647 114.046,69.448 113.487 C 70.206 112.959,73.482 112.977,74.886 113.518 M271.614 114.826 C 272.304 115.519,273.219 116.270,273.647 116.494 C 274.757 117.076,275.070 117.930,276.383 123.964 C 276.872 126.212,276.713 128.055,275.767 131.092 C 275.582 131.687,275.358 132.601,275.269 133.125 C 274.946 135.045,272.618 137.873,270.703 138.673 C 268.611 139.547,264.804 138.752,263.921 137.256 C 263.656 136.806,263.099 136.289,262.682 136.107 C 261.097 135.412,259.506 128.486,260.055 124.675 C 261.146 117.096,261.096 117.243,262.888 116.335 C 263.535 116.008,264.306 115.385,264.602 114.953 C 265.494 113.650,265.707 113.565,268.118 113.565 L 270.359 113.565 271.614 114.826 M68.857 129.472 C 67.516 130.702,66.816 137.390,67.895 138.661 C 69.273 140.284,72.663 140.681,77.279 139.759 C 80.382 139.140,81.097 134.779,78.710 131.036 C 77.258 128.758,70.760 127.726,68.857 129.472 M74.665 131.089 C 75.027 131.347,75.939 131.747,76.691 131.979 C 78.758 132.615,79.135 133.355,78.784 136.076 C 78.637 137.214,78.432 138.230,78.329 138.334 C 77.635 139.028,70.064 139.267,69.347 138.618 C 68.691 138.025,68.727 134.130,69.408 131.924 L 69.908 130.304 71.957 130.462 C 73.414 130.574,74.196 130.755,74.665 131.089 " stroke="none" fill="#30c4f4" fill-rule="evenodd"></path><path id="path3" d="M259.952 104.923 C 257.443 105.476,257.520 105.434,256.772 106.620 C 256.364 107.266,255.734 107.783,254.746 108.281 C 253.298 109.012,253.055 109.266,252.053 111.087 C 251.749 111.639,251.016 112.453,250.424 112.897 C 249.073 113.910,248.915 114.517,248.244 121.248 C 247.750 126.203,247.755 127.103,248.298 132.533 C 248.802 137.568,249.012 138.244,250.494 139.610 C 251.215 140.273,252.093 141.332,252.446 141.962 C 252.919 142.806,253.435 143.304,254.406 143.852 C 255.130 144.261,255.908 144.869,256.133 145.203 C 257.209 146.799,257.738 147.100,259.954 147.380 C 265.144 148.034,268.675 148.195,271.515 147.909 C 278.504 147.204,278.715 147.142,279.808 145.491 C 280.152 144.972,280.838 144.339,281.333 144.083 C 282.393 143.537,283.583 142.329,284.129 141.243 C 284.344 140.818,284.892 140.217,285.347 139.907 C 286.836 138.896,287.026 138.441,287.628 134.454 C 288.572 128.208,288.767 126.124,288.556 124.531 C 287.225 114.506,286.961 113.476,285.461 112.452 C 284.905 112.073,284.192 111.280,283.871 110.684 C 283.234 109.503,281.982 108.283,281.407 108.283 C 281.207 108.283,280.418 107.617,279.655 106.802 C 277.735 104.752,277.170 104.636,268.667 104.536 C 262.838 104.467,261.818 104.512,259.952 104.923 M57.124 105.384 L 56.423 106.086 56.423 126.024 L 56.423 145.962 57.168 146.810 L 57.913 147.659 65.991 147.641 C 82.585 147.603,83.516 147.476,86.315 144.880 C 87.107 144.145,88.248 143.289,88.851 142.979 C 90.606 142.075,91.482 139.733,91.472 135.974 C 91.461 132.032,90.464 130.372,87.035 128.584 C 83.151 126.560,82.900 125.891,85.109 123.447 C 87.311 121.009,89.217 115.189,88.476 113.165 C 88.290 112.659,87.971 111.635,87.767 110.890 C 87.390 109.512,86.140 108.043,85.344 108.043 C 85.150 108.043,84.370 107.412,83.611 106.642 L 82.231 105.240 80.055 104.961 C 78.707 104.788,74.062 104.682,67.852 104.682 L 57.826 104.682 57.124 105.384 M105.305 105.419 L 104.625 106.227 104.755 120.641 C 104.905 137.167,104.966 137.828,106.459 139.059 C 106.969 139.479,107.675 140.465,108.124 141.383 C 108.769 142.703,109.141 143.137,110.288 143.905 C 111.050 144.415,111.928 145.236,112.239 145.729 C 113.614 147.907,121.657 148.692,130.612 147.523 C 134.047 147.074,134.529 146.880,135.402 145.592 C 135.750 145.078,136.391 144.442,136.827 144.178 C 138.749 143.011,138.991 142.650,140.188 139.136 C 140.818 137.287,141.538 135.396,141.787 134.934 C 142.387 133.823,142.684 106.426,142.102 105.966 C 141.282 105.321,139.235 104.861,136.660 104.744 L 133.944 104.620 133.239 105.296 L 132.533 105.972 132.533 120.084 C 132.533 136.460,132.648 135.592,130.137 138.245 C 127.801 140.714,123.685 141.531,119.478 140.359 C 115.259 139.185,115.193 138.885,115.069 120.374 L 114.973 105.935 114.426 105.421 C 113.929 104.954,113.522 104.894,109.932 104.759 L 105.985 104.611 105.305 105.419 M157.083 105.302 C 156.308 105.913,156.303 105.932,156.303 108.036 L 156.303 110.154 157.151 110.899 L 158.000 111.645 161.965 111.645 C 166.367 111.645,166.896 111.779,167.868 113.142 L 168.427 113.926 168.497 130.011 L 168.567 146.096 169.337 146.899 L 170.108 147.702 172.389 147.600 C 174.170 147.521,175.025 147.352,176.291 146.833 L 177.911 146.167 177.912 132.207 C 177.913 110.835,177.535 111.836,185.714 111.535 C 191.202 111.332,191.116 111.387,191.116 108.110 C 191.116 106.042,191.069 105.813,190.527 105.271 L 189.938 104.682 173.900 104.685 L 157.863 104.687 157.083 105.302 M203.679 105.021 C 201.512 105.449,201.441 105.549,201.441 108.163 C 201.441 109.651,201.540 110.466,201.741 110.629 C 202.241 111.036,206.429 111.645,208.746 111.647 C 210.534 111.649,211.139 111.751,212.125 112.217 C 215.312 113.724,215.366 114.060,215.366 132.314 L 215.366 146.198 216.507 146.869 C 218.187 147.857,221.612 147.966,222.689 147.067 L 223.409 146.465 223.529 130.436 C 223.680 110.262,223.112 111.883,230.116 111.657 C 234.053 111.530,234.258 111.498,235.354 110.854 L 236.495 110.184 236.495 108.071 L 236.495 105.959 235.322 105.320 L 234.149 104.682 219.655 104.705 C 209.322 104.722,204.736 104.813,203.679 105.021 M304.858 105.291 L 303.962 105.900 303.962 126.058 L 303.962 146.215 304.958 146.937 C 306.531 148.077,309.645 148.027,310.828 146.843 L 311.645 146.026 311.645 135.974 L 311.645 125.922 312.215 125.082 C 313.506 123.182,314.858 123.378,316.328 125.677 C 316.780 126.383,317.541 127.203,318.020 127.499 C 319.295 128.287,319.758 128.855,320.719 130.810 C 321.194 131.777,322.207 133.276,322.970 134.140 C 323.783 135.061,324.546 136.222,324.812 136.944 C 325.167 137.906,325.555 138.396,326.586 139.188 C 327.519 139.904,328.050 140.536,328.400 141.350 C 328.672 141.983,329.146 142.739,329.453 143.030 C 330.393 143.919,331.763 145.321,332.863 146.519 L 333.910 147.659 335.928 147.659 C 337.826 147.659,337.999 147.615,338.841 146.921 L 339.736 146.184 339.736 126.045 L 339.736 105.907 338.933 105.294 C 338.213 104.745,337.912 104.682,336.014 104.682 C 334.116 104.682,333.816 104.745,333.096 105.294 L 332.293 105.907 332.293 115.991 C 332.293 126.938,332.299 126.885,330.945 127.950 C 329.943 128.738,329.495 128.571,327.612 126.711 C 326.643 125.753,325.453 124.654,324.968 124.267 C 324.465 123.866,323.851 123.032,323.539 122.327 C 323.181 121.519,322.566 120.731,321.765 120.055 C 320.819 119.258,320.254 118.467,319.294 116.593 C 318.431 114.909,317.721 113.875,316.976 113.217 C 316.292 112.612,315.662 111.732,315.239 110.788 C 314.740 109.676,314.319 109.136,313.546 108.616 C 312.980 108.235,312.208 107.396,311.830 106.752 C 310.503 104.491,307.089 103.775,304.858 105.291 M79.162 105.669 C 81.116 105.949,82.113 106.381,82.113 106.950 C 82.113 107.598,83.287 108.678,84.319 108.979 C 86.490 109.613,86.520 109.648,86.822 111.892 C 87.402 116.189,86.830 119.083,85.149 120.365 C 81.448 123.188,81.313 128.081,84.910 129.030 C 86.585 129.471,87.284 129.894,87.928 130.852 C 88.239 131.315,88.832 131.909,89.246 132.173 C 90.324 132.861,90.516 133.460,90.516 136.130 C 90.516 139.686,89.097 141.678,85.135 143.682 C 84.524 143.991,83.960 144.531,83.636 145.117 C 83.350 145.633,82.917 146.173,82.674 146.317 C 82.012 146.709,58.195 146.833,57.729 146.447 C 57.259 146.057,57.203 106.159,57.671 105.690 C 58.057 105.304,76.480 105.286,79.162 105.669 M112.404 105.775 L 114.003 105.934 114.118 119.894 C 114.290 140.777,114.290 140.777,119.921 141.440 C 124.910 142.028,129.467 141.389,131.304 139.843 C 133.304 138.160,133.489 136.470,133.492 119.916 C 133.493 109.398,133.564 105.908,133.782 105.690 C 134.149 105.323,137.239 105.311,138.669 105.671 L 139.736 105.939 139.731 119.776 C 139.726 132.612,139.690 133.822,139.234 136.495 C 138.964 138.079,138.665 139.970,138.570 140.697 C 138.361 142.297,138.184 142.615,137.501 142.622 C 135.941 142.638,134.532 143.849,134.134 145.515 C 133.863 146.648,122.534 147.263,115.497 146.526 L 113.707 146.339 113.281 145.138 C 112.784 143.735,112.188 143.173,110.967 142.954 C 109.830 142.751,109.244 142.227,109.244 141.415 C 109.244 140.070,107.539 136.888,106.262 135.848 C 105.766 135.445,105.762 135.340,105.762 120.602 L 105.762 105.762 107.563 105.619 C 108.553 105.540,109.688 105.507,110.084 105.546 C 110.480 105.584,111.524 105.688,112.404 105.775 M188.115 105.608 L 190.276 105.762 190.346 107.901 C 190.435 110.633,190.800 110.446,184.966 110.653 C 179.515 110.847,179.117 110.939,177.332 112.410 C 175.566 113.866,175.643 113.079,175.555 130.510 L 175.477 146.134 174.696 146.416 C 173.627 146.803,170.121 146.788,169.795 146.396 C 169.627 146.193,169.517 140.680,169.463 129.769 C 169.360 108.982,170.013 110.846,162.797 110.737 C 157.110 110.651,157.263 110.724,157.263 108.089 C 157.263 106.434,157.341 105.996,157.683 105.736 C 158.135 105.393,183.611 105.285,188.115 105.608 M234.520 105.776 C 235.245 106.284,235.338 110.019,234.634 110.350 C 234.403 110.459,232.161 110.606,229.652 110.676 C 222.031 110.890,222.709 109.050,222.615 129.764 C 222.565 140.846,222.459 146.182,222.286 146.391 C 221.940 146.807,218.008 146.813,217.467 146.399 C 217.114 146.128,217.066 144.565,216.979 130.492 C 216.873 113.639,216.866 113.542,215.580 112.341 C 214.406 111.244,212.966 110.893,208.764 110.679 C 206.651 110.571,204.598 110.386,204.202 110.266 L 203.481 110.049 203.481 108.028 L 203.481 106.006 204.682 105.727 C 206.730 105.251,233.835 105.296,234.520 105.776 M275.286 105.649 C 277.768 106.078,277.743 106.065,278.245 107.198 C 278.774 108.394,279.768 109.130,281.179 109.368 C 282.258 109.550,282.425 109.737,282.822 111.207 C 283.176 112.514,283.858 113.239,285.151 113.683 C 286.277 114.069,286.266 114.017,286.768 121.128 C 287.080 125.551,287.081 126.820,286.777 131.453 C 286.323 138.378,286.354 138.234,285.256 138.529 C 284.064 138.851,283.167 139.853,282.816 141.257 C 282.520 142.440,282.265 142.664,280.871 142.961 C 279.876 143.172,278.788 144.232,278.512 145.258 C 278.206 146.393,278.198 146.395,273.109 146.680 C 269.432 146.886,260.742 146.665,258.764 146.315 C 257.977 146.176,257.835 146.044,257.623 145.259 C 257.307 144.084,256.343 143.146,255.255 142.956 C 253.874 142.714,253.387 142.286,253.206 141.158 C 252.984 139.769,252.289 138.887,251.040 138.410 C 249.822 137.945,249.862 138.064,249.433 133.613 C 249.090 130.054,249.287 118.409,249.725 116.335 C 250.022 114.925,250.814 113.806,251.514 113.806 C 252.057 113.806,253.000 112.422,253.295 111.190 C 253.631 109.788,253.748 109.679,255.342 109.278 C 256.507 108.984,257.863 107.995,257.863 107.440 C 257.863 106.855,259.094 106.048,260.433 105.756 C 262.167 105.376,273.251 105.296,275.286 105.649 M310.354 105.915 C 310.503 106.034,310.692 106.553,310.774 107.069 C 310.969 108.288,311.928 109.405,313.072 109.748 C 313.916 110.001,314.011 110.124,314.374 111.428 C 314.866 113.196,316.217 115.332,317.287 116.031 C 318.088 116.554,318.538 117.331,319.090 119.144 C 319.386 120.119,320.247 120.933,321.227 121.167 C 322.147 121.386,322.419 121.681,322.595 122.653 C 322.935 124.527,324.255 126.050,325.540 126.050 C 325.681 126.050,326.029 126.590,326.313 127.249 C 327.200 129.311,329.555 130.201,331.499 129.209 C 333.240 128.321,333.253 128.226,333.253 116.521 C 333.253 104.453,333.019 105.402,336.004 105.402 C 338.807 105.402,338.535 103.190,338.535 126.050 C 338.535 148.911,338.807 146.699,336.004 146.699 C 333.790 146.699,333.530 146.538,333.057 144.877 C 332.713 143.672,332.162 143.150,330.812 142.751 C 329.797 142.452,329.762 142.408,329.371 140.914 C 329.074 139.780,328.779 139.227,328.234 138.779 C 327.830 138.447,327.119 137.868,326.654 137.491 C 326.190 137.115,325.810 136.652,325.810 136.461 C 325.810 135.131,323.934 132.208,322.663 131.560 C 321.804 131.121,321.680 130.911,320.984 128.713 C 320.611 127.536,319.799 126.806,318.586 126.558 C 317.891 126.416,317.743 126.253,317.478 125.338 C 316.695 122.636,313.691 121.670,311.704 123.481 C 310.765 124.338,310.687 125.287,310.686 135.906 C 310.684 147.690,310.925 146.702,308.055 146.691 C 304.814 146.679,305.162 149.160,305.162 126.050 C 305.162 107.293,305.188 106.035,305.582 105.726 C 306.048 105.361,309.850 105.512,310.354 105.915 M69.388 110.388 C 65.175 110.869,63.625 112.421,63.625 116.158 C 63.625 122.428,66.598 125.581,72.149 125.200 C 75.591 124.964,77.103 124.276,77.993 122.541 C 78.137 122.261,78.560 121.971,78.935 121.896 C 82.004 121.282,82.404 112.787,79.433 111.335 C 78.253 110.758,71.619 110.132,69.388 110.388 M262.939 111.062 C 260.596 111.692,259.201 113.245,258.315 116.209 C 258.096 116.943,257.638 117.614,256.883 118.310 C 253.810 121.145,253.942 131.311,257.096 134.736 C 257.707 135.399,258.322 136.475,258.800 137.715 C 260.132 141.172,261.047 141.533,268.427 141.520 C 274.700 141.509,276.461 141.003,276.944 139.076 C 277.327 137.547,278.077 136.233,278.854 135.728 C 282.271 133.506,282.414 120.672,279.060 117.253 C 278.560 116.743,277.665 115.363,277.071 114.186 C 275.868 111.803,275.325 111.367,273.009 110.928 C 271.071 110.561,264.478 110.648,262.939 111.062 M75.658 111.543 C 79.092 112.173,79.859 112.910,80.247 115.950 C 80.623 118.894,80.079 119.972,77.579 121.235 C 76.837 121.610,76.015 122.155,75.751 122.447 C 73.762 124.650,68.569 124.331,67.327 121.931 C 65.932 119.232,65.494 114.507,66.508 113.083 C 67.806 111.260,71.098 110.706,75.658 111.543 M271.943 111.908 C 274.140 112.580,275.772 114.207,277.071 117.017 C 277.571 118.101,278.160 119.136,278.380 119.318 C 280.877 121.390,281.009 130.171,278.586 133.001 C 278.159 133.500,277.590 134.465,277.322 135.146 C 275.426 139.956,274.062 140.812,268.307 140.802 C 262.480 140.793,260.727 139.662,258.836 134.694 C 258.409 133.571,257.866 132.437,257.629 132.173 C 255.753 130.080,255.418 123.846,257.032 121.090 C 257.368 120.517,257.732 120.048,257.841 120.048 C 257.950 120.048,258.378 119.157,258.791 118.067 C 260.932 112.423,265.948 110.074,271.943 111.908 M67.827 127.061 C 64.555 128.210,63.485 130.578,63.662 136.274 C 63.759 139.360,64.157 140.151,66.215 141.340 C 66.837 141.699,67.734 142.300,68.208 142.674 C 69.695 143.849,72.906 143.782,74.825 142.536 C 75.415 142.153,76.397 141.838,77.538 141.667 C 80.507 141.220,81.458 140.380,81.763 137.937 C 81.867 137.102,82.095 136.488,82.404 136.208 C 82.668 135.970,83.096 135.359,83.355 134.852 L 83.826 133.930 82.858 133.009 C 81.884 132.083,80.912 129.889,80.912 128.616 C 80.912 127.713,80.147 127.229,78.349 126.998 C 76.095 126.707,68.709 126.752,67.827 127.061 M76.089 127.998 C 79.599 128.547,81.780 131.969,81.172 135.971 C 80.606 139.691,79.841 140.430,75.921 141.035 C 70.601 141.857,68.183 141.429,66.700 139.404 L 65.976 138.415 66.102 134.934 C 66.358 127.903,68.036 126.738,76.089 127.998 " stroke="none" fill="#bcecfc" fill-rule="evenodd"></path><path id="path4" d="M16.990 18.177 C 17.288 18.234,17.720 18.232,17.950 18.172 C 18.180 18.112,17.935 18.065,17.407 18.068 C 16.879 18.070,16.691 18.120,16.990 18.177 M382.176 18.177 C 382.474 18.234,382.906 18.232,383.136 18.172 C 383.366 18.112,383.121 18.065,382.593 18.068 C 382.065 18.070,381.877 18.120,382.176 18.177 M10.108 22.420 C 9.957 22.602,9.536 22.811,9.172 22.884 C 8.129 23.092,7.280 23.915,6.872 25.114 C 6.549 26.061,6.546 26.177,6.849 25.925 C 7.044 25.764,7.203 25.491,7.203 25.319 C 7.203 24.777,8.395 23.564,9.220 23.265 C 9.656 23.108,10.138 22.778,10.290 22.534 C 10.616 22.013,10.504 21.943,10.108 22.420 M389.678 22.474 C 389.848 22.751,390.344 23.108,390.780 23.265 C 391.605 23.564,392.797 24.777,392.797 25.319 C 392.797 25.491,392.956 25.764,393.151 25.925 C 393.454 26.177,393.451 26.061,393.128 25.114 C 392.729 23.941,391.918 23.133,390.897 22.892 C 390.556 22.811,390.072 22.570,389.822 22.357 C 389.390 21.988,389.383 21.994,389.678 22.474 M4.882 26.914 C 4.043 27.157,2.881 28.378,2.881 29.017 C 2.881 29.241,2.707 29.674,2.494 29.977 C 2.127 30.502,2.130 30.515,2.554 30.243 C 2.800 30.086,3.217 29.510,3.481 28.964 C 3.827 28.249,4.245 27.837,4.973 27.491 C 6.446 26.792,6.396 26.476,4.882 26.914 M394.006 26.826 C 394.011 26.928,394.470 27.227,395.027 27.491 C 395.755 27.837,396.173 28.249,396.519 28.964 C 396.783 29.510,397.181 30.074,397.403 30.217 C 397.842 30.499,397.889 30.646,396.852 28.475 C 396.370 27.467,393.971 26.077,394.006 26.826 M1.976 32.653 C 1.976 33.115,2.026 33.304,2.086 33.073 C 2.147 32.842,2.147 32.464,2.086 32.233 C 2.026 32.002,1.976 32.191,1.976 32.653 M397.900 32.773 C 397.902 33.301,397.952 33.489,398.009 33.190 C 398.066 32.892,398.064 32.460,398.004 32.230 C 397.944 32.001,397.897 32.245,397.900 32.773 M263.145 103.469 C 258.509 103.853,257.651 104.107,256.311 105.491 C 255.655 106.168,254.467 107.155,253.670 107.683 C 252.704 108.323,252.030 108.993,251.647 109.693 C 251.331 110.270,250.542 111.243,249.894 111.854 C 248.197 113.455,248.083 113.705,247.669 116.720 C 247.464 118.220,247.067 121.014,246.788 122.929 L 246.281 126.411 247.039 131.813 C 247.938 138.213,248.138 138.851,249.700 140.290 C 250.350 140.888,251.215 141.921,251.624 142.585 C 252.092 143.346,252.796 144.056,253.528 144.507 C 254.167 144.900,255.048 145.667,255.485 146.211 C 256.817 147.869,257.374 148.082,262.095 148.741 C 270.898 149.969,278.458 148.938,280.650 146.211 C 281.087 145.667,281.967 144.900,282.606 144.507 C 283.323 144.066,284.042 143.347,284.483 142.630 C 284.876 141.991,285.643 141.111,286.187 140.674 C 287.676 139.477,288.048 138.686,288.473 135.826 C 288.683 134.412,289.120 132.444,289.444 131.452 C 290.738 127.487,290.733 125.355,289.421 120.963 C 289.118 119.948,288.688 117.950,288.465 116.522 C 287.981 113.419,287.771 112.965,286.223 111.669 C 285.568 111.120,284.745 110.181,284.394 109.582 C 283.999 108.909,283.282 108.189,282.514 107.696 C 281.831 107.257,280.807 106.399,280.238 105.789 C 278.886 104.340,278.317 104.074,275.870 103.744 C 273.202 103.384,266.037 103.229,263.145 103.469 M56.532 104.749 L 55.462 105.819 55.463 125.959 C 55.464 145.632,55.475 146.117,55.941 146.881 C 57.015 148.642,56.857 148.619,67.587 148.610 C 82.725 148.597,84.681 148.341,87.083 146.059 C 87.717 145.457,88.857 144.540,89.616 144.021 C 91.729 142.579,92.437 140.603,92.437 136.147 C 92.437 131.211,91.511 129.482,87.872 127.620 C 84.865 126.082,84.962 126.236,86.083 124.767 C 86.550 124.156,87.259 122.925,87.658 122.032 C 88.057 121.139,88.638 119.868,88.948 119.208 C 89.259 118.547,89.799 117.123,90.149 116.043 L 90.785 114.078 90.159 113.133 C 89.815 112.613,89.313 111.606,89.045 110.896 C 88.385 109.152,87.616 108.200,86.074 107.213 C 85.362 106.758,84.596 106.105,84.373 105.764 C 84.149 105.422,83.468 104.850,82.859 104.492 L 81.753 103.842 69.677 103.761 L 57.602 103.680 56.532 104.749 M105.316 104.177 C 103.647 105.278,103.725 104.528,103.723 119.466 C 103.721 137.319,103.810 138.176,105.864 140.172 C 106.365 140.658,107.050 141.597,107.385 142.257 C 108.041 143.547,108.667 144.207,109.909 144.918 C 110.342 145.166,110.978 145.776,111.323 146.275 C 113.156 148.919,121.283 149.991,129.907 148.725 C 134.538 148.046,134.625 148.010,136.758 145.879 C 137.563 145.076,138.608 144.117,139.081 143.750 C 139.701 143.267,140.116 142.622,140.571 141.431 C 140.918 140.523,141.521 139.299,141.911 138.709 C 143.503 136.305,143.577 135.470,143.577 119.893 L 143.577 105.890 142.917 105.161 C 141.665 103.779,134.866 103.131,133.096 104.225 C 131.521 105.198,131.573 104.663,131.573 119.924 C 131.573 135.623,131.730 134.369,129.416 137.052 C 126.983 139.872,123.999 140.557,119.947 139.226 C 116.189 137.993,116.001 136.984,115.980 117.955 L 115.966 105.658 115.156 104.847 C 114.227 103.919,113.083 103.725,108.523 103.725 C 106.457 103.725,105.879 103.806,105.316 104.177 M156.984 104.207 C 154.069 105.747,154.375 111.129,157.446 112.325 C 157.807 112.466,159.910 112.613,162.118 112.653 C 168.078 112.760,167.551 110.898,167.572 131.904 L 167.587 146.522 168.636 147.571 L 169.685 148.619 171.959 148.619 C 175.038 148.619,177.784 147.933,178.691 146.936 L 179.352 146.211 179.352 132.059 C 179.352 111.399,178.936 112.605,186.063 112.605 L 190.156 112.605 191.116 111.645 L 192.077 110.684 192.077 108.135 L 192.077 105.586 191.145 104.654 L 190.213 103.721 174.038 103.732 C 158.523 103.742,157.827 103.762,156.984 104.207 M203.338 103.937 C 200.861 104.204,200.252 105.024,200.245 108.107 C 200.237 111.951,201.347 112.593,208.037 112.611 C 213.463 112.625,213.428 112.499,213.438 131.975 L 213.445 146.184 214.346 146.926 C 217.177 149.261,222.602 149.299,224.165 146.995 C 224.584 146.377,224.617 145.409,224.730 130.372 C 224.820 118.372,224.923 114.278,225.145 113.891 C 225.615 113.071,226.765 112.815,230.612 112.674 C 236.641 112.452,238.415 111.408,238.415 108.082 C 238.415 105.879,237.803 105.042,235.572 104.194 C 234.317 103.717,207.374 103.502,203.338 103.937 M304.933 104.100 C 304.476 104.298,303.747 104.732,303.312 105.063 L 302.521 105.667 302.521 126.038 L 302.521 146.409 303.370 147.155 C 305.810 149.297,310.607 149.223,312.052 147.022 C 312.447 146.419,312.496 145.469,312.605 136.211 L 312.725 126.061 313.372 125.415 C 314.151 124.635,314.395 124.773,315.622 126.691 C 316.120 127.471,316.776 128.130,317.338 128.419 C 318.550 129.040,319.160 129.768,319.679 131.212 C 320.260 132.829,320.901 133.883,322.086 135.175 C 322.632 135.770,323.439 136.933,323.879 137.759 C 324.430 138.793,325.035 139.516,325.822 140.081 C 326.603 140.642,327.214 141.370,327.751 142.378 C 328.280 143.370,328.879 144.089,329.579 144.570 C 330.151 144.964,330.800 145.577,331.020 145.932 C 333.010 149.146,337.848 149.807,340.067 147.169 L 340.696 146.422 340.688 126.092 C 340.681 106.818,340.658 105.735,340.245 105.241 C 338.394 103.024,332.776 103.156,331.636 105.442 C 331.441 105.833,331.334 109.025,331.281 116.024 L 331.206 126.046 330.558 126.694 C 329.803 127.449,329.393 127.235,328.301 125.517 C 327.989 125.026,327.382 124.446,326.952 124.229 C 325.742 123.619,324.867 122.686,324.214 121.311 C 323.856 120.556,323.181 119.696,322.524 119.158 C 321.670 118.458,321.177 117.730,320.270 115.831 C 319.385 113.979,318.862 113.198,318.071 112.550 C 317.500 112.082,316.725 111.120,316.348 110.412 C 315.972 109.703,314.949 108.419,314.074 107.558 C 313.200 106.698,312.284 105.690,312.039 105.318 C 311.004 103.752,307.228 103.104,304.933 104.100 M276.768 104.967 C 278.111 105.283,278.410 105.473,279.655 106.802 C 280.418 107.617,281.207 108.283,281.407 108.283 C 281.982 108.283,283.234 109.503,283.871 110.684 C 284.192 111.280,284.905 112.073,285.461 112.452 C 286.961 113.476,287.225 114.506,288.556 124.531 C 288.767 126.124,288.572 128.208,287.628 134.454 C 287.026 138.441,286.836 138.896,285.347 139.907 C 284.892 140.217,284.344 140.818,284.129 141.243 C 283.583 142.329,282.393 143.537,281.333 144.083 C 280.838 144.339,280.152 144.972,279.808 145.491 C 278.715 147.142,278.504 147.204,271.515 147.909 C 268.675 148.195,265.144 148.034,259.954 147.380 C 257.738 147.100,257.209 146.799,256.133 145.203 C 255.908 144.869,255.130 144.261,254.406 143.852 C 253.435 143.304,252.919 142.806,252.446 141.962 C 252.093 141.332,251.215 140.273,250.494 139.610 C 249.012 138.244,248.802 137.568,248.298 132.533 C 247.755 127.103,247.750 126.203,248.244 121.248 C 248.915 114.517,249.073 113.910,250.424 112.897 C 251.016 112.453,251.749 111.639,252.053 111.087 C 253.055 109.266,253.298 109.012,254.746 108.281 C 255.734 107.783,256.364 107.266,256.772 106.620 C 257.520 105.434,257.443 105.476,259.952 104.923 C 262.638 104.332,274.203 104.362,276.768 104.967 M80.055 104.961 L 82.231 105.240 83.611 106.642 C 84.370 107.412,85.150 108.043,85.344 108.043 C 86.140 108.043,87.390 109.512,87.767 110.890 C 87.971 111.635,88.290 112.659,88.476 113.165 C 89.217 115.189,87.311 121.009,85.109 123.447 C 82.900 125.891,83.151 126.560,87.035 128.584 C 90.464 130.372,91.461 132.032,91.472 135.974 C 91.482 139.733,90.606 142.075,88.851 142.979 C 88.248 143.289,87.107 144.145,86.315 144.880 C 83.516 147.476,82.585 147.603,65.991 147.641 L 57.913 147.659 57.168 146.810 L 56.423 145.962 56.423 126.024 L 56.423 106.086 57.124 105.384 L 57.826 104.682 67.852 104.682 C 74.062 104.682,78.707 104.788,80.055 104.961 M114.426 105.421 L 114.973 105.935 115.069 120.374 C 115.193 138.885,115.259 139.185,119.478 140.359 C 123.685 141.531,127.801 140.714,130.137 138.245 C 132.648 135.592,132.533 136.460,132.533 120.084 L 132.533 105.972 133.239 105.296 L 133.944 104.620 136.660 104.744 C 139.235 104.861,141.282 105.321,142.102 105.966 C 142.684 106.426,142.387 133.823,141.787 134.934 C 141.538 135.396,140.818 137.287,140.188 139.136 C 138.991 142.650,138.749 143.011,136.827 144.178 C 136.391 144.442,135.750 145.078,135.402 145.592 C 134.529 146.880,134.047 147.074,130.612 147.523 C 125.444 148.197,123.509 148.240,118.803 147.781 C 113.902 147.303,113.069 147.043,112.239 145.729 C 111.928 145.236,111.050 144.415,110.288 143.905 C 109.141 143.137,108.769 142.703,108.124 141.383 C 107.675 140.465,106.969 139.479,106.459 139.059 C 104.966 137.828,104.905 137.167,104.755 120.641 L 104.625 106.227 105.305 105.419 L 105.985 104.611 109.932 104.759 C 113.522 104.894,113.929 104.954,114.426 105.421 M190.527 105.271 C 191.069 105.813,191.116 106.042,191.116 108.110 C 191.116 111.387,191.202 111.332,185.714 111.535 C 177.535 111.836,177.913 110.835,177.912 132.207 L 177.911 146.167 176.291 146.833 C 175.025 147.352,174.170 147.521,172.389 147.600 L 170.108 147.702 169.337 146.899 L 168.567 146.096 168.497 130.011 L 168.427 113.926 167.868 113.142 C 166.896 111.779,166.367 111.645,161.965 111.645 L 158.000 111.645 157.151 110.899 L 156.303 110.154 156.303 108.036 C 156.303 105.932,156.308 105.913,157.083 105.302 L 157.863 104.687 173.900 104.685 L 189.938 104.682 190.527 105.271 M235.322 105.320 L 236.495 105.959 236.495 108.071 L 236.495 110.184 235.354 110.854 C 234.258 111.498,234.053 111.530,230.116 111.657 C 223.112 111.883,223.680 110.262,223.529 130.436 L 223.409 146.465 222.689 147.067 C 221.612 147.966,218.187 147.857,216.507 146.869 L 215.366 146.198 215.366 132.314 C 215.366 114.060,215.312 113.724,212.125 112.217 C 211.139 111.751,210.534 111.649,208.746 111.647 C 206.429 111.645,202.241 111.036,201.741 110.629 C 201.266 110.244,201.332 106.032,201.819 105.627 C 202.759 104.847,205.034 104.729,219.655 104.705 L 234.149 104.682 235.322 105.320 M310.613 105.140 C 310.905 105.383,311.452 106.109,311.830 106.752 C 312.208 107.396,312.980 108.235,313.546 108.616 C 314.319 109.136,314.740 109.676,315.239 110.788 C 315.662 111.732,316.292 112.612,316.976 113.217 C 317.721 113.875,318.431 114.909,319.294 116.593 C 320.254 118.467,320.819 119.258,321.765 120.055 C 322.566 120.731,323.181 121.519,323.539 122.327 C 323.851 123.032,324.465 123.866,324.968 124.267 C 325.453 124.654,326.643 125.753,327.612 126.711 C 329.495 128.571,329.943 128.738,330.945 127.950 C 332.299 126.885,332.293 126.938,332.293 115.991 L 332.293 105.907 333.096 105.294 C 333.816 104.745,334.116 104.682,336.014 104.682 C 337.912 104.682,338.213 104.745,338.933 105.294 L 339.736 105.907 339.736 126.045 L 339.736 146.184 338.841 146.921 C 337.999 147.615,337.826 147.659,335.928 147.659 L 333.910 147.659 332.863 146.519 C 331.763 145.321,330.393 143.919,329.453 143.030 C 329.146 142.739,328.672 141.983,328.400 141.350 C 328.050 140.536,327.519 139.904,326.586 139.188 C 325.555 138.396,325.167 137.906,324.812 136.944 C 324.546 136.222,323.783 135.061,322.970 134.140 C 322.207 133.276,321.194 131.777,320.719 130.810 C 319.758 128.855,319.295 128.287,318.020 127.499 C 317.541 127.203,316.780 126.383,316.328 125.677 C 314.858 123.378,313.506 123.182,312.215 125.082 L 311.645 125.922 311.645 135.974 L 311.645 146.026 310.828 146.843 C 309.645 148.027,306.531 148.077,304.958 146.937 L 303.962 146.215 303.962 126.058 L 303.962 105.900 304.858 105.291 C 306.035 104.491,309.720 104.394,310.613 105.140 M68.236 111.785 C 65.496 113.151,65.096 117.616,67.327 121.931 C 68.569 124.331,73.762 124.650,75.751 122.447 C 76.015 122.155,76.837 121.610,77.579 121.235 C 80.079 119.972,80.623 118.894,80.247 115.950 C 79.859 112.910,79.092 112.173,75.658 111.543 C 72.394 110.944,69.751 111.030,68.236 111.785 M264.500 111.838 C 262.122 112.628,259.959 114.988,258.791 118.067 C 258.378 119.157,257.950 120.048,257.841 120.048 C 257.732 120.048,257.368 120.517,257.032 121.090 C 255.418 123.846,255.753 130.080,257.629 132.173 C 257.866 132.437,258.409 133.571,258.836 134.694 C 260.727 139.662,262.480 140.793,268.307 140.802 C 274.062 140.812,275.426 139.956,277.322 135.146 C 277.590 134.465,278.159 133.500,278.586 133.001 C 279.833 131.545,280.197 130.178,280.218 126.876 C 280.246 122.441,279.766 120.469,278.380 119.318 C 278.160 119.136,277.571 118.101,277.071 117.017 C 274.843 112.196,269.745 110.096,264.500 111.838 M76.371 112.829 C 77.241 113.099,78.123 113.510,78.332 113.743 C 78.772 114.234,79.559 117.780,79.321 118.202 C 78.879 118.987,78.025 119.676,76.843 120.202 C 76.124 120.522,75.157 121.072,74.696 121.424 C 73.444 122.379,70.209 122.840,69.476 122.168 C 68.217 121.013,67.444 118.597,67.518 116.048 L 67.587 113.685 68.788 112.877 L 69.988 112.068 72.389 112.203 C 73.760 112.279,75.468 112.548,76.371 112.829 M271.238 112.884 C 272.779 113.461,274.967 115.457,275.671 116.929 C 277.071 119.854,277.399 120.445,277.999 121.129 C 279.644 123.002,279.507 129.866,277.790 131.694 C 277.537 131.963,276.887 133.153,276.344 134.339 C 274.206 139.008,274.537 138.652,271.580 139.471 C 265.862 141.055,261.698 139.031,259.772 133.731 C 259.365 132.610,258.779 131.260,258.472 130.731 C 256.943 128.105,256.991 123.725,258.573 121.503 C 258.821 121.154,259.258 120.171,259.542 119.318 C 261.395 113.768,266.336 111.050,271.238 112.884 M69.205 127.901 C 66.826 128.719,66.283 129.950,66.102 134.934 L 65.976 138.415 66.700 139.404 C 68.943 142.467,78.965 141.982,80.495 138.737 C 82.654 134.159,80.403 128.673,76.089 127.998 C 73.297 127.561,70.316 127.519,69.205 127.901 M76.075 129.295 C 80.849 130.803,81.777 138.862,77.279 139.759 C 70.246 141.163,67.489 140.050,67.475 135.802 C 67.452 128.882,69.607 127.252,76.075 129.295 M1.976 215.366 C 1.976 215.828,2.026 216.017,2.086 215.786 C 2.147 215.555,2.147 215.177,2.086 214.946 C 2.026 214.715,1.976 214.904,1.976 215.366 M397.895 215.366 C 397.895 215.828,397.944 216.017,398.005 215.786 C 398.065 215.555,398.065 215.177,398.005 214.946 C 397.944 214.715,397.895 214.904,397.895 215.366 M2.789 218.667 C 3.085 219.910,3.685 220.640,4.739 221.043 C 6.136 221.576,6.289 221.310,4.957 220.665 C 3.967 220.186,3.121 219.083,3.121 218.271 C 3.121 218.126,3.011 218.007,2.877 218.007 C 2.732 218.007,2.696 218.276,2.789 218.667 M396.357 219.028 C 396.000 219.680,395.474 220.207,394.898 220.488 C 393.366 221.237,393.760 221.652,395.386 221.001 C 396.321 220.627,396.929 219.849,397.211 218.667 C 397.446 217.678,396.989 217.871,396.357 219.028 M6.723 222.324 C 6.723 223.003,7.539 224.442,8.110 224.770 C 8.991 225.276,10.084 225.522,10.084 225.215 C 10.084 225.080,9.876 224.970,9.622 224.970 C 8.968 224.970,7.678 223.815,7.287 222.880 C 6.961 222.100,6.723 221.865,6.723 222.324 M392.551 222.824 C 392.253 223.544,391.170 224.513,390.336 224.807 C 389.639 225.052,389.845 225.476,390.576 225.302 C 392.052 224.951,393.277 223.600,393.277 222.324 C 393.277 221.823,392.841 222.124,392.551 222.824 M12.305 226.096 C 12.536 226.156,12.914 226.156,13.145 226.096 C 13.376 226.035,13.187 225.986,12.725 225.986 C 12.263 225.986,12.074 226.035,12.305 226.096 M386.855 226.096 C 387.086 226.156,387.464 226.156,387.695 226.096 C 387.926 226.035,387.737 225.986,387.275 225.986 C 386.813 225.986,386.624 226.035,386.855 226.096 M14.198 228.407 C 14.150 229.055,14.607 229.772,15.068 229.772 C 15.398 229.772,15.378 229.705,14.956 229.410 C 14.671 229.210,14.392 228.805,14.335 228.509 C 14.260 228.119,14.222 228.091,14.198 228.407 M385.008 229.431 C 384.618 229.716,384.606 229.772,384.934 229.772 C 385.149 229.772,385.397 229.657,385.484 229.516 C 385.739 229.104,385.511 229.064,385.008 229.431 " stroke="none" fill="#7cd4fc" fill-rule="evenodd"></path></g></svg>